<svg version="1.1" id="Layer_1" xmlns="http://www.w3.org/2000/svg" xmlns:xlink="http://www.w3.org/1999/xlink" x="0px" y="0px"
	 width="79.836px" height="284.805px" viewBox="0 0 79.836 284.805" enable-background="new 0 0 79.836 284.805"
	 xml:space="preserve">
<g>
	<g>
		<defs>
			<rect id="SVGID_1_" x="2.402" y="3.294" width="73.72" height="278.329"/>
		</defs>
		<clipPath id="SVGID_2_">
			<use xlink:href="#SVGID_1_"  overflow="visible"/>
		</clipPath>
		<g id="beer_fill" clip-path="url(#SVGID_2_)">
			<linearGradient id="SVGID_3_" gradientUnits="userSpaceOnUse" x1="39.9185" y1="278.7175" x2="39.9184" y2="6.2151">
				<stop  offset="0" style="stop-color:#CF8A00"/>
				<stop  offset="1" style="stop-color:#F0B132"/>
			</linearGradient>
			<path fill="url(#SVGID_3_)" d="M64.17,106.081l-5.988-6.925c-2.53-3.151-4.105-7.253-4.105-11.339V44.53V22.918V17.24v-5.512
				V8.414c0-1.264-0.949-2.199-2.195-2.199H27.952c-1.26,0-2.196,0.951-2.196,2.199v3.314v5.512v5.678V44.53v42.958
				c0,4.102-1.576,8.188-4.104,11.339l-5.985,6.924c-5.991,7.253-9.452,16.705-9.452,26.157v13.093v4.271v80.646v18.317v28.284
				c0,1.266,0.949,2.199,2.199,2.199h63.008c1.263,0,2.199-0.951,2.199-2.199v-28.284v-18.317v-80.646v-4.271v-12.765
				C73.622,122.784,70.156,113.333,64.17,106.081z"/>
		</g>
	</g>
</g>
<g>
	<path d="M33.451,178.58h8.153c2,0,3.686,0.438,5.059,1.312l13.219-10.496H17.894v33.364l15.558-12.368L33.451,178.58L33.451,178.58
		z"/>
	<path d="M68.963,102.124c-0.03-0.037-0.062-0.073-0.092-0.107l-5.906-6.831c-1.676-2.124-2.674-4.871-2.674-7.369V44.53V22.918
		V17.24v-5.512V8.414c0-4.718-3.693-8.414-8.41-8.414H27.953c-4.717,0-8.411,3.696-8.411,8.414v3.314v5.512v5.678V44.53v42.958
		c0,2.535-0.973,5.216-2.673,7.37l-5.904,6.83c-0.031,0.035-0.061,0.07-0.09,0.105C3.963,110.161,0,121.137,0,131.908v13.093v4.271
		v80.646v18.317v28.285c0,4.718,3.696,8.415,8.413,8.415h63.009c4.719,0,8.414-3.697,8.414-8.415v-28.285v-18.317v-80.646v-4.271
		v-12.765C79.836,121.47,75.874,110.495,68.963,102.124z M25.756,11.728V8.414c0-1.248,0.936-2.199,2.196-2.199h23.927
		c1.248,0,2.195,0.937,2.195,2.199v3.314v0.701h-28.32L25.756,11.728L25.756,11.728z M73.622,229.917v18.317v28.285
		c0,1.248-0.938,2.2-2.199,2.2H8.413c-1.249,0-2.199-0.937-2.199-2.2v-28.285v-18.317v-2.146h67.408V229.917z M15.925,205.572
		v-38.147h47.986v38.147l-23.994,7.966L15.925,205.572z M73.622,145.001v4.271v3.9H6.214v-3.9v-4.271v-13.093
		c0-9.452,3.461-18.903,9.452-26.157l5.985-6.924c2.528-3.15,4.104-7.237,4.104-11.339V44.53V22.918v-4.274h28.32v4.274V44.53
		v43.287c0,4.086,1.576,8.188,4.106,11.339l5.987,6.925c5.986,7.252,9.451,16.704,9.451,26.156v12.764H73.622z"/>
	<path d="M41.23,183.077h-2.532v3.094l3.749-2.998c-0.126,0-0.312-0.016-0.562-0.049C41.636,183.093,41.417,183.077,41.23,183.077z"
		/>
	<path d="M49.57,185.326v0.092c0,2.251-0.749,3.972-2.247,5.155c-1.5,1.188-3.501,1.782-5.998,1.782h-2.626v5.436h-5.247v-4.966
		l-14.622,11.62l21.088,7.03l22.026-7.31v-33.929l-13.776,10.964C49.103,182.266,49.57,183.64,49.57,185.326z"/>
	<path d="M44.229,185.609c0-0.5-0.096-0.876-0.281-1.127l-4.686,3.656h1.875C43.198,188.138,44.229,187.294,44.229,185.609z"/>
</g>
</svg>
