<?xml version="1.0" encoding="utf-8"?>
<!-- Generator: Adobe Illustrator 15.1.0, SVG Export Plug-In . SVG Version: 6.00 Build 0)  -->
<!DOCTYPE svg PUBLIC "-//W3C//DTD SVG 1.1//EN" "http://www.w3.org/Graphics/SVG/1.1/DTD/svg11.dtd">
<svg version="1.1" id="Layer_1" xmlns="http://www.w3.org/2000/svg" xmlns:xlink="http://www.w3.org/1999/xlink" x="0px" y="0px"
	 width="653px" height="701.5px" viewBox="-286.582 -166.597 653 701.5" enable-background="new -286.582 -166.597 653 701.5"
	 xml:space="preserve">
<path opacity="0.4" fill="#EAEAEA" d="M69.75,199.184v-16.728V164.14V83.493v-4.271V66.457c0.001-9.451-3.465-18.902-9.451-26.154
	l-5.988-6.925c-2.529-3.151-4.104-7.254-4.104-11.34v-43.286V-42.86v-5.678v-5.513v-3.313c0-1.265-0.949-2.199-2.195-2.199h-23.93
	c-1.261,0-2.196,0.951-2.196,2.199v3.313v5.513v5.678v21.612v42.957c0,4.103-1.576,8.188-4.104,11.34l-5.985,6.924
	C5.805,47.226,2.344,56.678,2.344,66.13v13.093v4.271v80.646v18.316v16.134c0.026,7.917,6.44,14.328,14.359,14.35h39.952
	C63.818,212.31,69.46,206.44,69.75,199.184z"/>
<g>
	<defs>
		<rect id="SVGID_1_" x="2.344" y="-63.161" width="67.406" height="276.101"/>
	</defs>
	<clipPath id="SVGID_2_">
		<use xlink:href="#SVGID_1_"  overflow="visible"/>
	</clipPath>
	<linearGradient id="SVGID_3_" gradientUnits="userSpaceOnUse" x1="36.0464" y1="-59.5632" x2="36.0463" y2="212.9402">
		<stop  offset="0" style="stop-color:#CF8A00"/>
		<stop  offset="1" style="stop-color:#F0B132"/>
	</linearGradient>
	<path clip-path="url(#SVGID_2_)" fill="url(#SVGID_3_)" d="M69.75,199.184v-16.728V164.14V83.493v-4.271V66.457
		c0.001-9.451-3.465-18.902-9.451-26.154l-5.988-6.925c-2.529-3.151-4.104-7.254-4.104-11.34v-43.286V-42.86v-5.678v-5.513v-3.313
		c0-1.265-0.949-2.199-2.195-2.199h-23.93c-1.261,0-2.196,0.951-2.196,2.199v3.313v5.513v5.678v21.612v42.957
		c0,4.103-1.576,8.188-4.104,11.34l-5.985,6.924C5.805,47.226,2.344,56.678,2.344,66.13v13.093v4.271v80.646v18.316v16.134
		c0.026,7.917,6.44,14.328,14.359,14.35h39.952C63.818,212.31,69.46,206.44,69.75,199.184z"/>
</g>
<linearGradient id="SVGID_4_" gradientUnits="userSpaceOnUse" x1="21.6465" y1="76.7307" x2="69.75" y2="76.7307">
	<stop  offset="0" style="stop-color:#FFFFFF;stop-opacity:0.4"/>
	<stop  offset="1" style="stop-color:#FFFFFF;stop-opacity:0.2"/>
</linearGradient>
<path fill="url(#SVGID_4_)" d="M69.75,164.14V83.493v-4.271V66.457c0.001-9.451-3.465-18.902-9.451-26.154l-5.988-6.925
	c-2.529-3.151-4.104-7.254-4.104-11.34v-43.286V-42.86v-5.678v-5.513v-3.313c0-1.265-0.949-2.199-2.195-2.199h-5.55
	c0,0,0,69.179,0,81.188c0,19.759-20.814,24.509-20.814,45.5c0,17.509,0,131.5,0,131.5c0,7.953,6.447,14.4,14.4,14.4H69.75v-30.568
	V164.14z"/>
<g>
	<linearGradient id="SVGID_5_" gradientUnits="userSpaceOnUse" x1="161.8574" y1="102.9001" x2="161.8574" y2="130.1501">
		<stop  offset="0" style="stop-color:#CF8A00"/>
		<stop  offset="1" style="stop-color:#F0B132"/>
	</linearGradient>
	<path fill="url(#SVGID_5_)" d="M165.228,128.774v-1.673v-1.831v-8.064v-0.428v-1.276c0-0.945-0.347-1.891-0.945-2.615l-0.599-0.692
		c-0.253-0.315-0.41-0.726-0.41-1.134v-4.329v-2.161v-0.567v-0.552v-0.331c0-0.127-0.096-0.22-0.22-0.22h-2.394
		c-0.126,0-0.219,0.095-0.219,0.22v0.331v0.552v0.567v2.161v4.296c0,0.41-0.158,0.818-0.411,1.134l-0.599,0.692
		c-0.599,0.726-0.944,1.671-0.944,2.616v1.309v0.428v8.064v1.831v1.613c0.002,0.792,0.644,1.434,1.436,1.436h3.995
		C164.635,130.087,165.198,129.5,165.228,128.774z"/>
	<linearGradient id="SVGID_6_" gradientUnits="userSpaceOnUse" x1="160.417" y1="116.5295" x2="165.2275" y2="116.5295">
		<stop  offset="0" style="stop-color:#FFFFFF;stop-opacity:0.4"/>
		<stop  offset="1" style="stop-color:#FFFFFF;stop-opacity:0.2"/>
	</linearGradient>
	<path fill="url(#SVGID_6_)" d="M165.228,125.27v-8.064v-0.428v-1.276c0-0.945-0.347-1.891-0.945-2.615l-0.599-0.692
		c-0.253-0.315-0.41-0.726-0.41-1.134v-4.329v-2.161v-0.567v-0.552v-0.331c0-0.127-0.096-0.22-0.22-0.22h-0.555c0,0,0,6.917,0,8.118
		c0,1.976-2.082,2.451-2.082,4.55c0,1.751,0,13.15,0,13.15c0,0.795,0.645,1.44,1.44,1.44h3.37v-3.058V125.27z"/>
	<linearGradient id="SVGID_7_" gradientUnits="userSpaceOnUse" x1="158.5078" y1="121.3254" x2="165.2275" y2="121.3254">
		<stop  offset="0" style="stop-color:#000000;stop-opacity:0.75"/>
		<stop  offset="1" style="stop-color:#1A1A1A;stop-opacity:0.85"/>
	</linearGradient>
	<rect x="158.508" y="117.595" fill="url(#SVGID_7_)" width="6.72" height="7.46"/>
</g>
<path fill="#020202" d="M46.381-63.161H25.71c-3.974,0-7.195,3.222-7.195,7.195h35.062C53.576-59.939,50.354-63.161,46.381-63.161z"
	/>
<g>
	<linearGradient id="SVGID_8_" gradientUnits="userSpaceOnUse" x1="2.5498" y1="124.6931" x2="69.75" y2="124.6931">
		<stop  offset="0" style="stop-color:#000000;stop-opacity:0.75"/>
		<stop  offset="1" style="stop-color:#1A1A1A;stop-opacity:0.85"/>
	</linearGradient>
	<rect x="2.55" y="87.394" fill="url(#SVGID_8_)" width="67.2" height="74.599"/>
	<path fill="#D1D1D1" d="M55.475,106.023v30.888l-19.428,6.452l-19.429-6.452v-30.888H55.475z M18.212,134.635l12.598-10.017v-9.563
		h6.604c1.619,0,2.994,0.361,4.112,1.062l10.687-8.5h-34V134.635z M53.883,108.3l-11.156,8.88c0.757,0.866,1.153,1.983,1.153,3.354
		v0.076c0,1.822-0.608,3.214-1.821,4.174c-1.216,0.963-2.836,1.443-4.857,1.443h-2.125v4.401H30.81v-4.038l-11.84,9.404
		l17.077,5.692l17.836-5.92V108.3z M38.097,118.773c-0.103,0-0.256-0.012-0.455-0.038c-0.203-0.025-0.382-0.038-0.532-0.038h-2.05
		v2.504L38.097,118.773z M39.311,119.835l-3.795,2.96h1.518c1.67,0,2.505-0.683,2.505-2.049c0-0.405-0.091-0.693-0.236-0.911H39.311
		z"/>
</g>
</svg>
