<?xml version="1.0" encoding="utf-8"?>
<!DOCTYPE svg PUBLIC "-//W3C//DTD SVG 1.1//EN" "http://www.w3.org/Graphics/SVG/1.1/DTD/svg11.dtd">
<svg version="1.1" id="Layer_1" xmlns="http://www.w3.org/2000/svg" xmlns:xlink="http://www.w3.org/1999/xlink" x="0px" y="0px"
	 width="317.361px" height="139.413px" viewBox="0 0 317.361 139.413" enable-background="new 0 0 317.361 139.413"
	 xml:space="preserve">
<clipPath id="svgPath">
   <path fill="none" stroke="#231F20" stroke-miterlimit="10" d="M247.654,0c-13.343,0-49.901,0-78.683,0c-5.938,0-12.993,0-20.582,0
	c-28.781,0-65.34,0-78.683,0C31.208,0,0,31.208,0,69.707c0,38.498,31.208,69.707,69.707,69.707s51.866-26.404,58.959-39.433
	c5.621-10.324,14.696-25.522,30.014-25.522c15.182,0,24.394,15.198,30.014,25.522c7.094,13.028,20.462,39.433,58.96,39.433
	c38.499,0,69.707-31.209,69.707-69.707C317.361,31.208,286.153,0,247.654,0L247.654,0z"/>
</clipPath>
</svg>
