<svg style="position:absolute;margin-top:51.7665;top:50%;margin-left:53.8705;left:50%" version="1.1" x="0px" y="0px" width="107.741px" height="103.533px" viewBox="0 0 107.741 103.533" enable-background="new 0 0 107.741 103.533" xml:space="preserve"><path fill="#2e2e2e" d="M107.741 0v85.646l-53.871 17.888L0 85.646V0H107.741z M4.419 79.333l34.932-27.776V25.042h18.308 c4.488 0 8.3 1 11.4 2.946L98.693 4.419H4.419V79.333z M103.323 6.313L72.389 30.934c2.104 2.4 3.2 5.5 3.2 9.3 v0.21c0 5.05-1.684 8.911-5.05 11.573c-3.367 2.668-7.858 3.999-13.468 3.999h-5.893v12.205H39.351V57.027L6.523 83.1 l47.347 15.783l49.453-16.414V6.313z M59.553 35.353c-0.283 0-0.704-0.033-1.263-0.105c-0.562-0.068-1.052-0.105-1.473-0.105 h-5.682v6.944L59.553 35.353z M62.919 38.299l-10.521 8.207h4.209c4.629 0 6.944-1.894 6.944-5.682 C63.551 39.7 63.3 38.9 62.9 38.299z"/></svg>